<svg width="597" height="290" xmlns="http://www.w3.org/2000/svg">

 <g>
  <title>background</title>
  <rect fill="none" id="canvas_background" height="292" width="599" y="-1" x="-1"/>
 </g>
 <g>
  <title>Layer 1</title>
  <g stroke="null" stroke-opacity="0" fill-opacity="0.1" id="svg_1">
   <g stroke="null" id="Layer_1_110_">
    <g stroke="null" id="svg_2">
     <path stroke="#0f0f00" id="svg_3" fill="#ffffff" d="m68.300446,130.371754l-15.998234,-15.119702c1.863383,-3.385425 3.016106,-7.218511 3.016106,-11.353766c0,-13.105234 -10.615128,-23.720361 -23.725957,-23.720361c-13.11083,0 -23.742744,10.609532 -23.742744,23.720361c0,13.11083 10.631915,23.731553 23.742744,23.731553c4.622085,0 8.897234,-1.376553 12.545659,-3.659617l15.975851,15.102915c2.417362,-3.19517 5.142489,-6.121745 8.186574,-8.701383z"/>
     <path stroke="#0f0f00" id="svg_4" fill="#ffffff" d="m135.969785,128.480392l21.258234,-35.773595c2.092808,0.598745 4.263957,1.029617 6.541425,1.029617c13.133213,0 23.74834,-10.620723 23.74834,-23.731553c0,-13.105234 -10.615128,-23.720361 -23.74834,-23.720361c-13.11083,0 -23.720361,10.609532 -23.720361,23.720361c0,6.507851 2.624404,12.388979 6.865979,16.680915l-21.191085,35.672872c3.64283,1.650745 7.078617,3.709979 10.245808,6.121745z"/>
     <path stroke="#0f0f00" id="svg_5" fill="#ffffff" d="m209.285231,158.428817c-10.206638,0 -18.852064,6.485468 -22.203915,15.528191l-29.53434,-2.915383c0,0.22383 0.033574,0.436468 0.033574,0.654702c0,3.849872 -0.425277,7.610213 -1.191894,11.241851l29.523149,2.915383c1.785043,11.325787 11.538425,20.010383 23.373425,20.010383c13.105234,0 23.714766,-10.609532 23.714766,-23.714766c0,-13.099638 -10.609532,-23.720361 -23.714766,-23.720361z"/>
     <path stroke="#0f0f00" id="svg_6" fill="#ffffff" d="m127.783211,251.721071l-6.602979,-28.851659c-3.726766,1.298213 -7.604617,2.227106 -11.65034,2.691553l6.61417,28.857255c-7.582234,3.967383 -12.814255,11.807021 -12.814255,20.961659c0,13.105234 10.609532,23.70917 23.742744,23.70917c13.105234,0 23.714766,-10.609532 23.714766,-23.70917c0.016787,-12.864617 -10.234617,-23.278298 -23.004106,-23.658808z"/>
     <path stroke="#0f0f00" id="svg_7" fill="#ffffff" d="m50.338105,183.150817l-36.764042,12.316234c-4.241574,-6.479872 -11.544021,-10.777404 -19.853702,-10.777404c-13.11083,0 -23.720361,10.615128 -23.720361,23.720361c0,13.122021 10.609532,23.737149 23.720361,23.737149c13.099638,0 23.737149,-10.615128 23.737149,-23.737149c0,-0.548383 -0.117511,-1.052 -0.162277,-1.589191l36.881553,-12.349808c-1.661936,-3.586872 -2.982532,-7.364 -3.838681,-11.320191z"/>
     <circle stroke="#0f0f00" id="svg_8" fill="#ffffff" r="40.686638" cy="171.696328" cx="103.346594"/>
    </g>
   </g>
  </g>
  <g id="svg_9"/>
  <g id="svg_10"/>
  <g id="svg_11"/>
  <g id="svg_12"/>
  <g id="svg_13"/>
  <g id="svg_14"/>
  <g id="svg_15"/>
  <g id="svg_16"/>
  <g id="svg_17"/>
  <g id="svg_18"/>
  <g id="svg_19"/>
  <g id="svg_20"/>
  <g id="svg_21"/>
  <g id="svg_22"/>
  <g id="svg_23"/>
 </g>
</svg>